<svg width="69" height="83" viewBox="0 0 69 83" fill="none" xmlns="http://www.w3.org/2000/svg">
<path d="M47 19H41.4286C41.4286 15.4006 39.9611 11.9487 37.349 9.40355C34.7369 6.85841 31.1941 5.42857 27.5 5.42857C23.8059 5.42857 20.2631 6.85841 17.651 9.40355C15.0389 11.9487 13.5714 15.4006 13.5714 19H8C8 13.9609 10.0545 9.12816 13.7114 5.56497C17.3684 2.00178 22.3283 0 27.5 0C32.6717 0 37.6316 2.00178 41.2886 5.56497C44.9455 9.12816 47 13.9609 47 19Z" fill="#FF0000"/>
<path d="M60.7225 38.6923C59.297 38.6974 57.898 39.0795 56.6665 39.8C55.9226 38.6158 54.8926 37.6395 53.6722 36.9617C52.4518 36.284 51.0805 35.9267 49.6857 35.9231C48.2602 35.9282 46.8613 36.3103 45.6297 37.0308C44.6259 35.4455 43.1164 34.2484 41.3475 33.6348C39.5786 33.0212 37.6547 33.0274 35.8898 33.6523V19.3077C35.8898 17.1044 35.0177 14.9913 33.4654 13.4333C31.913 11.8753 29.8076 11 27.6123 11C25.4169 11 23.3115 11.8753 21.7591 13.4333C20.2068 14.9913 19.3347 17.1044 19.3347 19.3077V50.0461L13.1817 45.8369C11.7712 44.7826 10.0566 44.2187 8.29798 44.2308C6.65621 44.2267 5.05031 44.7127 3.68447 45.627C2.31863 46.5413 1.25455 47.8426 0.627505 49.3655C0.00046534 50.8883 -0.161204 52.5639 0.163054 54.1792C0.487311 55.7945 1.28285 57.2766 2.44851 58.4369L24.522 78.6523C27.647 81.4595 31.6959 83.008 35.8898 83H49.6857C54.8082 83 59.7209 80.9577 63.343 77.3223C66.9651 73.687 69 68.7565 69 63.6154V47C69 44.7966 68.1279 42.6836 66.5756 41.1256C65.0232 39.5676 62.9178 38.6923 60.7225 38.6923ZM63.4816 63.6154C63.4816 67.2876 62.0281 70.8094 59.4409 73.4061C56.8537 76.0027 53.3446 77.4615 49.6857 77.4615H35.8898C33.1008 77.4953 30.3946 76.5112 28.2745 74.6923L6.33896 54.4769C5.82922 53.9611 5.54185 53.2649 5.5388 52.5384C5.5388 52.0242 5.68149 51.52 5.95088 51.0826C6.22027 50.6451 6.60572 50.2916 7.06404 50.0616C7.52235 49.8316 8.03543 49.7342 8.54577 49.7804C9.05611 49.8266 9.54356 50.0145 9.95349 50.3231L24.8531 60.5692V19.3077C24.8531 18.5732 25.1438 17.8689 25.6612 17.3495C26.1787 16.8302 26.8805 16.5385 27.6123 16.5385C28.344 16.5385 29.0458 16.8302 29.5633 17.3495C30.0807 17.8689 30.3714 18.5732 30.3714 19.3077V49.7692H35.8898V41.4615C35.8898 40.7271 36.1805 40.0227 36.698 39.5034C37.2154 38.9841 37.9172 38.6923 38.649 38.6923C39.3808 38.6923 40.0826 38.9841 40.6 39.5034C41.1175 40.0227 41.4082 40.7271 41.4082 41.4615V49.7692H46.9265V44.2308C46.9265 43.4963 47.2172 42.7919 47.7347 42.2726C48.2521 41.7533 48.9539 41.4615 49.6857 41.4615C50.4175 41.4615 51.1193 41.7533 51.6368 42.2726C52.1542 42.7919 52.4449 43.4963 52.4449 44.2308V49.7692H57.9633V47C57.9633 46.2655 58.254 45.5612 58.7714 45.0418C59.2889 44.5225 59.9907 44.2308 60.7225 44.2308C61.4542 44.2308 62.156 44.5225 62.6735 45.0418C63.1909 45.5612 63.4816 46.2655 63.4816 47V63.6154Z" fill="#FF0000"/>
</svg>
